<svg width="295" height="49" viewBox="0 0 295 49" fill="none" xmlns="http://www.w3.org/2000/svg">
<mask id="path-1-outside-1" maskUnits="userSpaceOnUse" x="0.160004" y="-0.440002" width="295" height="49" fill="black">
<rect fill="white" x="0.160004" y="-0.440002" width="295" height="49"/>
<path d="M29.832 2.2C30.6427 2.66933 31.24 3.33067 31.624 4.184C32.0507 4.99466 32.264 5.89066 32.264 6.872C32.264 7.72533 32.0933 8.57866 31.752 9.432C31.4107 10.2853 30.9627 10.9893 30.408 11.544C25.544 11.6293 20.9573 11.8427 16.648 12.184C16.4347 13.08 15.9867 15.064 15.304 18.136C15.2187 18.52 14.9413 19.864 14.472 22.168C19.0373 21.784 22.6427 21.272 25.288 20.632C26.1413 21.144 26.7813 21.8267 27.208 22.68C27.6773 23.4907 27.912 24.3867 27.912 25.368C27.912 26.264 27.72 27.1173 27.336 27.928C26.9947 28.696 26.504 29.3147 25.864 29.784C25.0533 29.8693 24.2427 29.9333 23.432 29.976C22.664 30.0187 21.9173 30.0613 21.192 30.104L13.192 30.68C12.8507 32.856 12.5093 35.4373 12.168 38.424C11.784 41.624 11.4427 43.864 11.144 45.144C10.8453 46.3813 10.3547 47 9.672 47C8.60534 47 7.38934 46.6373 6.024 45.912C4.70134 45.144 3.54934 44.2693 2.568 43.288C1.62934 42.264 1.16 41.432 1.16 40.792C1.16 40.152 1.37334 38.744 1.8 36.568C2.26934 34.392 2.78134 32.0453 3.336 29.528C5.256 21.2507 6.38667 15.576 6.728 12.504L4.04 12.696C3.22934 12.2693 2.568 11.6507 2.056 10.84C1.58667 9.98667 1.352 9.06933 1.352 8.088C1.352 6.38133 2.01334 4.86667 3.336 3.544C9.18134 3.45866 14.2587 3.33066 18.568 3.16C22.92 2.98933 26.6747 2.66933 29.832 2.2Z"/>
<path d="M58.8625 47.384C55.8332 45.6347 53.1452 43.4587 50.7985 40.856C48.4518 38.2533 46.5532 35.288 45.1025 31.96L44.8465 34.648C44.4198 38.7867 43.9932 41.88 43.5665 43.928C43.1825 45.976 42.6278 47 41.9025 47C40.9212 47 39.7478 46.6373 38.3825 45.912C37.0598 45.1867 35.8865 44.3333 34.8625 43.352C33.8812 42.3707 33.3905 41.56 33.3905 40.92C33.3905 39.8107 34.4358 34.1573 36.5265 23.96C36.7825 22.7653 37.1878 20.7387 37.7425 17.88C38.3398 14.9787 38.7452 12.888 38.9585 11.608L36.5905 11.992C35.2678 10.7547 34.6065 9.19733 34.6065 7.32C34.6065 5.99733 34.9692 4.632 35.6945 3.224C39.1505 2.328 42.6492 1.88 46.1905 1.88C49.9452 1.88 53.4225 2.37066 56.6225 3.352C59.8652 4.33333 62.4892 5.848 64.4945 7.896C66.4998 9.90133 67.5025 12.4187 67.5025 15.448C67.5025 18.9893 66.1158 22.04 63.3425 24.6C60.5692 27.1173 56.4945 28.8027 51.1185 29.656C53.2518 31.6613 55.3852 33.2827 57.5185 34.52C59.6945 35.7147 62.4252 36.8667 65.7105 37.976C65.8812 38.6587 65.9665 39.4053 65.9665 40.216C65.9665 42.1787 65.3692 43.8 64.1745 45.08C62.9798 46.36 61.2092 47.128 58.8625 47.384ZM46.3185 23.448C49.6892 23.1067 52.4412 22.2107 54.5745 20.76C56.7505 19.3093 57.8385 17.5813 57.8385 15.576C57.8385 14.296 57.1985 13.2293 55.9185 12.376C54.6812 11.48 52.9958 11.032 50.8625 11.032C50.0945 11.032 49.2625 11.096 48.3665 11.224C47.6838 15.1493 47.3638 17.0267 47.4065 16.856C47.0225 18.9467 46.6598 21.144 46.3185 23.448Z"/>
<path d="M86.1715 1.56C89.2862 1.56 92.2302 2.30666 95.0035 3.8C97.8195 5.29333 100.06 7.27733 101.724 9.752C103.43 12.184 104.284 14.7227 104.284 17.368C104.284 21.5067 103.174 25.944 100.956 30.68C98.7368 35.3733 95.9208 39.32 92.5075 42.52C89.1368 45.72 85.8088 47.32 82.5235 47.32C80.8168 47.32 78.8968 46.616 76.7635 45.208C74.6728 43.7573 72.8808 42.0507 71.3875 40.088C69.8942 38.0827 69.1475 36.312 69.1475 34.776C69.1475 32.344 69.8728 28.1627 71.3235 22.232C72.7742 16.2587 74.1182 11.864 75.3555 9.048C76.7635 8.62133 78.0862 8.408 79.3235 8.408C80.1768 8.408 80.8595 8.49333 81.3715 8.664C81.2862 7.08533 81.6702 5.63466 82.5235 4.312C83.3768 2.98933 84.5928 2.072 86.1715 1.56ZM79.5795 38.552C83.6755 37.0587 87.1102 34.2 89.8835 29.976C92.6568 25.7093 94.6195 21.0373 95.7715 15.96C94.5768 15.1067 93.0195 14.4027 91.0995 13.848C89.2222 13.2933 87.1955 12.9947 85.0195 12.952C85.1048 13.3787 85.1902 14.0187 85.2755 14.872C81.3502 22.2107 79.4515 30.104 79.5795 38.552Z"/>
<path d="M135.918 2.2C136.729 2.2 137.817 2.56266 139.182 3.288C140.59 4.01333 141.806 4.86667 142.83 5.848C143.897 6.82933 144.43 7.68267 144.43 8.408C144.43 8.792 144.025 10.4987 143.214 13.528C141.721 18.904 140.611 23.5973 139.886 27.608C139.459 30.1253 139.011 33.432 138.542 37.528C138.115 41.0267 137.731 43.48 137.39 44.888C137.091 46.296 136.601 47 135.918 47C134.681 47 133.23 46.488 131.566 45.464C129.945 44.3973 128.537 43.096 127.342 41.56C126.702 40.7067 125.806 39.0427 124.654 36.568C123.502 34.0933 122.371 31.32 121.262 28.248C120.195 25.1333 119.385 22.232 118.83 19.544L118.382 27.608C117.955 30.1253 117.507 33.432 117.038 37.528C116.611 41.0267 116.227 43.48 115.886 44.888C115.587 46.296 115.097 47 114.414 47C113.433 47 112.259 46.6587 110.894 45.976C109.571 45.2507 108.398 44.3973 107.374 43.416C106.393 42.4347 105.902 41.624 105.902 40.984C105.859 40.3013 106.051 38.872 106.478 36.696C106.947 34.4773 107.246 33.048 107.374 32.408C107.545 31.5547 107.865 29.9973 108.334 27.736C108.803 25.432 109.187 23.2987 109.486 21.336L109.998 18.328C110.809 13.5493 111.555 9.66667 112.238 6.68C112.963 3.69333 113.689 2.2 114.414 2.2C115.139 2.2 116.121 2.52 117.358 3.16C118.638 3.75733 119.79 4.504 120.814 5.4C121.881 6.296 122.563 7.14933 122.862 7.96C124.867 13.336 127.321 20.5893 130.222 29.72L130.99 21.336L131.502 18.328C132.313 13.5493 133.059 9.66667 133.742 6.68C134.467 3.69333 135.193 2.2 135.918 2.2Z"/>
<path d="M181.047 2.2C181.858 2.66933 182.455 3.33067 182.839 4.184C183.266 4.99466 183.479 5.89066 183.479 6.872C183.479 7.72533 183.308 8.57866 182.967 9.432C182.626 10.2853 182.178 10.9893 181.623 11.544C180.983 11.5013 180.023 11.48 178.743 11.48C177.932 11.48 176.46 11.5227 174.327 11.608L170.935 11.672C171.148 10.4347 170.636 13.3147 169.399 20.312L168.119 27.608C167.692 30.1253 167.244 33.432 166.775 37.528C166.348 41.0267 165.964 43.48 165.623 44.888C165.324 46.296 164.834 47 164.151 47C163.17 47 161.996 46.6587 160.631 45.976C159.308 45.2507 158.135 44.3973 157.111 43.416C156.13 42.4347 155.639 41.624 155.639 40.984C155.596 40.0027 156.108 37.1013 157.175 32.28C157.986 28.2267 158.562 25.2187 158.903 23.256C158.903 23.3413 159.244 21.5707 159.927 17.944C160.524 14.7013 160.887 12.7173 161.015 11.992L151.031 13.208C150.22 12.7813 149.559 12.1627 149.047 11.352C148.578 10.4987 148.343 9.58133 148.343 8.6C148.343 6.89333 149.004 5.37866 150.327 4.056C152.759 3.71467 155.788 3.50133 159.415 3.416C163.084 3.288 165.26 3.20266 165.943 3.16C170.423 3.032 173.687 2.92533 175.735 2.84C177.826 2.712 179.596 2.49866 181.047 2.2Z"/>
<path d="M214.145 2.2C214.955 2.66933 215.552 3.33067 215.936 4.184C216.363 4.99466 216.577 5.89066 216.577 6.872C216.577 7.72533 216.406 8.57866 216.064 9.432C215.723 10.2853 215.275 10.9893 214.721 11.544C209.217 11.6293 204.63 11.8427 200.96 12.184C200.235 14.7867 199.553 17.688 198.913 20.888C203.179 20.5467 206.785 20.0347 209.729 19.352C210.582 19.864 211.222 20.5467 211.648 21.4C212.118 22.2107 212.353 23.1067 212.353 24.088C212.353 24.984 212.161 25.8373 211.777 26.648C211.435 27.416 210.945 28.0347 210.305 28.504C209.494 28.5893 208.704 28.6533 207.936 28.696C207.168 28.7387 206.422 28.7813 205.697 28.824L197.441 29.4L196.288 35.16L195.648 38.232C198.251 37.976 200.598 37.6347 202.689 37.208C204.822 36.7387 207.062 36.0987 209.409 35.288C210.603 35.8427 211.521 36.632 212.161 37.656C212.843 38.6373 213.185 39.7253 213.185 40.92C213.185 42.6267 212.523 44.1413 211.201 45.464C208.555 45.976 205.59 46.36 202.305 46.616C199.019 46.872 195.968 47 193.152 47C192.384 47 191.382 46.616 190.145 45.848C188.907 45.08 187.798 44.184 186.816 43.16C185.878 42.136 185.408 41.2613 185.408 40.536C185.408 39.896 185.899 37.4213 186.88 33.112C187.606 29.9547 188.31 26.6693 188.992 23.256C189.462 20.9093 189.697 19.736 189.697 19.736C190.379 16.408 190.827 13.9973 191.04 12.504L188.352 12.696C187.542 12.2693 186.88 11.6507 186.368 10.84C185.899 9.98667 185.665 9.06933 185.665 8.088C185.665 6.38133 186.326 4.86667 187.648 3.544C193.494 3.45866 198.571 3.33066 202.88 3.16C207.232 2.98933 210.987 2.66933 214.145 2.2Z"/>
<path d="M247.855 2.2C248.666 2.2 249.754 2.56266 251.12 3.288C252.528 4.01333 253.744 4.86667 254.768 5.848C255.834 6.82933 256.367 7.68267 256.367 8.408C256.367 8.792 255.962 10.4987 255.151 13.528C253.658 18.904 252.549 23.5973 251.824 27.608C251.397 30.1253 250.949 33.432 250.479 37.528C250.053 41.0267 249.669 43.48 249.327 44.888C249.029 46.296 248.538 47 247.855 47C246.618 47 245.168 46.488 243.504 45.464C241.882 44.3973 240.474 43.096 239.279 41.56C238.639 40.7067 237.744 39.0427 236.592 36.568C235.44 34.0933 234.309 31.32 233.199 28.248C232.133 25.1333 231.322 22.232 230.768 19.544L230.32 27.608C229.893 30.1253 229.445 33.432 228.975 37.528C228.549 41.0267 228.165 43.48 227.824 44.888C227.525 46.296 227.034 47 226.352 47C225.37 47 224.197 46.6587 222.831 45.976C221.509 45.2507 220.335 44.3973 219.311 43.416C218.33 42.4347 217.839 41.624 217.839 40.984C217.797 40.3013 217.989 38.872 218.415 36.696C218.885 34.4773 219.183 33.048 219.311 32.408C219.482 31.5547 219.802 29.9973 220.271 27.736C220.741 25.432 221.125 23.2987 221.423 21.336L221.936 18.328C222.746 13.5493 223.493 9.66667 224.176 6.68C224.901 3.69333 225.626 2.2 226.352 2.2C227.077 2.2 228.058 2.52 229.296 3.16C230.576 3.75733 231.727 4.504 232.751 5.4C233.818 6.296 234.501 7.14933 234.799 7.96C236.805 13.336 239.258 20.5893 242.16 29.72L242.928 21.336L243.439 18.328C244.25 13.5493 244.997 9.66667 245.68 6.68C246.405 3.69333 247.13 2.2 247.855 2.2Z"/>
<path d="M264.569 1.56C269.731 1.98666 274.51 3.26666 278.905 5.4C283.299 7.53333 286.776 10.2213 289.336 13.464C291.896 16.664 293.177 20.0347 293.177 23.576C293.177 26.6907 291.811 30.1253 289.081 33.88C286.35 37.6347 283.022 40.8133 279.096 43.416C275.214 46.0187 271.673 47.32 268.473 47.32C267.406 47.32 266.04 46.7867 264.376 45.72C262.755 44.6533 261.326 43.4373 260.089 42.072C258.851 40.664 258.233 39.5547 258.233 38.744C258.233 38.0187 258.659 35.992 259.513 32.664C260.366 29.208 261.07 26.0933 261.625 23.32C261.838 22.2533 262.307 20.376 263.033 17.688C263.118 17.304 263.331 16.536 263.672 15.384C264.014 14.1893 264.27 13.1013 264.44 12.12L261.816 11.992C261.134 10.6267 260.793 9.26133 260.793 7.896C260.793 6.616 261.113 5.44267 261.753 4.376C262.393 3.26667 263.331 2.328 264.569 1.56ZM268.473 38.936C272.739 36.7173 276.28 34.008 279.096 30.808C281.955 27.608 283.384 24.6 283.384 21.784C283.384 20.12 282.382 18.52 280.376 16.984C278.414 15.448 276.152 14.424 273.592 13.912C273.08 16.5147 272.313 20.248 271.289 25.112C270.009 31.1707 269.07 35.7787 268.473 38.936Z"/>
</mask>
<path d="M29.832 2.2C30.6427 2.66933 31.24 3.33067 31.624 4.184C32.0507 4.99466 32.264 5.89066 32.264 6.872C32.264 7.72533 32.0933 8.57866 31.752 9.432C31.4107 10.2853 30.9627 10.9893 30.408 11.544C25.544 11.6293 20.9573 11.8427 16.648 12.184C16.4347 13.08 15.9867 15.064 15.304 18.136C15.2187 18.52 14.9413 19.864 14.472 22.168C19.0373 21.784 22.6427 21.272 25.288 20.632C26.1413 21.144 26.7813 21.8267 27.208 22.68C27.6773 23.4907 27.912 24.3867 27.912 25.368C27.912 26.264 27.72 27.1173 27.336 27.928C26.9947 28.696 26.504 29.3147 25.864 29.784C25.0533 29.8693 24.2427 29.9333 23.432 29.976C22.664 30.0187 21.9173 30.0613 21.192 30.104L13.192 30.68C12.8507 32.856 12.5093 35.4373 12.168 38.424C11.784 41.624 11.4427 43.864 11.144 45.144C10.8453 46.3813 10.3547 47 9.672 47C8.60534 47 7.38934 46.6373 6.024 45.912C4.70134 45.144 3.54934 44.2693 2.568 43.288C1.62934 42.264 1.16 41.432 1.16 40.792C1.16 40.152 1.37334 38.744 1.8 36.568C2.26934 34.392 2.78134 32.0453 3.336 29.528C5.256 21.2507 6.38667 15.576 6.728 12.504L4.04 12.696C3.22934 12.2693 2.568 11.6507 2.056 10.84C1.58667 9.98667 1.352 9.06933 1.352 8.088C1.352 6.38133 2.01334 4.86667 3.336 3.544C9.18134 3.45866 14.2587 3.33066 18.568 3.16C22.92 2.98933 26.6747 2.66933 29.832 2.2Z" stroke="white" stroke-width="2" mask="url(#path-1-outside-1)"/>
<path d="M58.8625 47.384C55.8332 45.6347 53.1452 43.4587 50.7985 40.856C48.4518 38.2533 46.5532 35.288 45.1025 31.96L44.8465 34.648C44.4198 38.7867 43.9932 41.88 43.5665 43.928C43.1825 45.976 42.6278 47 41.9025 47C40.9212 47 39.7478 46.6373 38.3825 45.912C37.0598 45.1867 35.8865 44.3333 34.8625 43.352C33.8812 42.3707 33.3905 41.56 33.3905 40.92C33.3905 39.8107 34.4358 34.1573 36.5265 23.96C36.7825 22.7653 37.1878 20.7387 37.7425 17.88C38.3398 14.9787 38.7452 12.888 38.9585 11.608L36.5905 11.992C35.2678 10.7547 34.6065 9.19733 34.6065 7.32C34.6065 5.99733 34.9692 4.632 35.6945 3.224C39.1505 2.328 42.6492 1.88 46.1905 1.88C49.9452 1.88 53.4225 2.37066 56.6225 3.352C59.8652 4.33333 62.4892 5.848 64.4945 7.896C66.4998 9.90133 67.5025 12.4187 67.5025 15.448C67.5025 18.9893 66.1158 22.04 63.3425 24.6C60.5692 27.1173 56.4945 28.8027 51.1185 29.656C53.2518 31.6613 55.3852 33.2827 57.5185 34.52C59.6945 35.7147 62.4252 36.8667 65.7105 37.976C65.8812 38.6587 65.9665 39.4053 65.9665 40.216C65.9665 42.1787 65.3692 43.8 64.1745 45.08C62.9798 46.36 61.2092 47.128 58.8625 47.384ZM46.3185 23.448C49.6892 23.1067 52.4412 22.2107 54.5745 20.76C56.7505 19.3093 57.8385 17.5813 57.8385 15.576C57.8385 14.296 57.1985 13.2293 55.9185 12.376C54.6812 11.48 52.9958 11.032 50.8625 11.032C50.0945 11.032 49.2625 11.096 48.3665 11.224C47.6838 15.1493 47.3638 17.0267 47.4065 16.856C47.0225 18.9467 46.6598 21.144 46.3185 23.448Z" stroke="white" stroke-width="2" mask="url(#path-1-outside-1)"/>
<path d="M86.1715 1.56C89.2862 1.56 92.2302 2.30666 95.0035 3.8C97.8195 5.29333 100.06 7.27733 101.724 9.752C103.43 12.184 104.284 14.7227 104.284 17.368C104.284 21.5067 103.174 25.944 100.956 30.68C98.7368 35.3733 95.9208 39.32 92.5075 42.52C89.1368 45.72 85.8088 47.32 82.5235 47.32C80.8168 47.32 78.8968 46.616 76.7635 45.208C74.6728 43.7573 72.8808 42.0507 71.3875 40.088C69.8942 38.0827 69.1475 36.312 69.1475 34.776C69.1475 32.344 69.8728 28.1627 71.3235 22.232C72.7742 16.2587 74.1182 11.864 75.3555 9.048C76.7635 8.62133 78.0862 8.408 79.3235 8.408C80.1768 8.408 80.8595 8.49333 81.3715 8.664C81.2862 7.08533 81.6702 5.63466 82.5235 4.312C83.3768 2.98933 84.5928 2.072 86.1715 1.56ZM79.5795 38.552C83.6755 37.0587 87.1102 34.2 89.8835 29.976C92.6568 25.7093 94.6195 21.0373 95.7715 15.96C94.5768 15.1067 93.0195 14.4027 91.0995 13.848C89.2222 13.2933 87.1955 12.9947 85.0195 12.952C85.1048 13.3787 85.1902 14.0187 85.2755 14.872C81.3502 22.2107 79.4515 30.104 79.5795 38.552Z" stroke="white" stroke-width="2" mask="url(#path-1-outside-1)"/>
<path d="M135.918 2.2C136.729 2.2 137.817 2.56266 139.182 3.288C140.59 4.01333 141.806 4.86667 142.83 5.848C143.897 6.82933 144.43 7.68267 144.43 8.408C144.43 8.792 144.025 10.4987 143.214 13.528C141.721 18.904 140.611 23.5973 139.886 27.608C139.459 30.1253 139.011 33.432 138.542 37.528C138.115 41.0267 137.731 43.48 137.39 44.888C137.091 46.296 136.601 47 135.918 47C134.681 47 133.23 46.488 131.566 45.464C129.945 44.3973 128.537 43.096 127.342 41.56C126.702 40.7067 125.806 39.0427 124.654 36.568C123.502 34.0933 122.371 31.32 121.262 28.248C120.195 25.1333 119.385 22.232 118.83 19.544L118.382 27.608C117.955 30.1253 117.507 33.432 117.038 37.528C116.611 41.0267 116.227 43.48 115.886 44.888C115.587 46.296 115.097 47 114.414 47C113.433 47 112.259 46.6587 110.894 45.976C109.571 45.2507 108.398 44.3973 107.374 43.416C106.393 42.4347 105.902 41.624 105.902 40.984C105.859 40.3013 106.051 38.872 106.478 36.696C106.947 34.4773 107.246 33.048 107.374 32.408C107.545 31.5547 107.865 29.9973 108.334 27.736C108.803 25.432 109.187 23.2987 109.486 21.336L109.998 18.328C110.809 13.5493 111.555 9.66667 112.238 6.68C112.963 3.69333 113.689 2.2 114.414 2.2C115.139 2.2 116.121 2.52 117.358 3.16C118.638 3.75733 119.79 4.504 120.814 5.4C121.881 6.296 122.563 7.14933 122.862 7.96C124.867 13.336 127.321 20.5893 130.222 29.72L130.99 21.336L131.502 18.328C132.313 13.5493 133.059 9.66667 133.742 6.68C134.467 3.69333 135.193 2.2 135.918 2.2Z" stroke="white" stroke-width="2" mask="url(#path-1-outside-1)"/>
<path d="M181.047 2.2C181.858 2.66933 182.455 3.33067 182.839 4.184C183.266 4.99466 183.479 5.89066 183.479 6.872C183.479 7.72533 183.308 8.57866 182.967 9.432C182.626 10.2853 182.178 10.9893 181.623 11.544C180.983 11.5013 180.023 11.48 178.743 11.48C177.932 11.48 176.46 11.5227 174.327 11.608L170.935 11.672C171.148 10.4347 170.636 13.3147 169.399 20.312L168.119 27.608C167.692 30.1253 167.244 33.432 166.775 37.528C166.348 41.0267 165.964 43.48 165.623 44.888C165.324 46.296 164.834 47 164.151 47C163.17 47 161.996 46.6587 160.631 45.976C159.308 45.2507 158.135 44.3973 157.111 43.416C156.13 42.4347 155.639 41.624 155.639 40.984C155.596 40.0027 156.108 37.1013 157.175 32.28C157.986 28.2267 158.562 25.2187 158.903 23.256C158.903 23.3413 159.244 21.5707 159.927 17.944C160.524 14.7013 160.887 12.7173 161.015 11.992L151.031 13.208C150.22 12.7813 149.559 12.1627 149.047 11.352C148.578 10.4987 148.343 9.58133 148.343 8.6C148.343 6.89333 149.004 5.37866 150.327 4.056C152.759 3.71467 155.788 3.50133 159.415 3.416C163.084 3.288 165.26 3.20266 165.943 3.16C170.423 3.032 173.687 2.92533 175.735 2.84C177.826 2.712 179.596 2.49866 181.047 2.2Z" stroke="white" stroke-width="2" mask="url(#path-1-outside-1)"/>
<path d="M214.145 2.2C214.955 2.66933 215.552 3.33067 215.936 4.184C216.363 4.99466 216.577 5.89066 216.577 6.872C216.577 7.72533 216.406 8.57866 216.064 9.432C215.723 10.2853 215.275 10.9893 214.721 11.544C209.217 11.6293 204.63 11.8427 200.96 12.184C200.235 14.7867 199.553 17.688 198.913 20.888C203.179 20.5467 206.785 20.0347 209.729 19.352C210.582 19.864 211.222 20.5467 211.648 21.4C212.118 22.2107 212.353 23.1067 212.353 24.088C212.353 24.984 212.161 25.8373 211.777 26.648C211.435 27.416 210.945 28.0347 210.305 28.504C209.494 28.5893 208.704 28.6533 207.936 28.696C207.168 28.7387 206.422 28.7813 205.697 28.824L197.441 29.4L196.288 35.16L195.648 38.232C198.251 37.976 200.598 37.6347 202.689 37.208C204.822 36.7387 207.062 36.0987 209.409 35.288C210.603 35.8427 211.521 36.632 212.161 37.656C212.843 38.6373 213.185 39.7253 213.185 40.92C213.185 42.6267 212.523 44.1413 211.201 45.464C208.555 45.976 205.59 46.36 202.305 46.616C199.019 46.872 195.968 47 193.152 47C192.384 47 191.382 46.616 190.145 45.848C188.907 45.08 187.798 44.184 186.816 43.16C185.878 42.136 185.408 41.2613 185.408 40.536C185.408 39.896 185.899 37.4213 186.88 33.112C187.606 29.9547 188.31 26.6693 188.992 23.256C189.462 20.9093 189.697 19.736 189.697 19.736C190.379 16.408 190.827 13.9973 191.04 12.504L188.352 12.696C187.542 12.2693 186.88 11.6507 186.368 10.84C185.899 9.98667 185.665 9.06933 185.665 8.088C185.665 6.38133 186.326 4.86667 187.648 3.544C193.494 3.45866 198.571 3.33066 202.88 3.16C207.232 2.98933 210.987 2.66933 214.145 2.2Z" stroke="white" stroke-width="2" mask="url(#path-1-outside-1)"/>
<path d="M247.855 2.2C248.666 2.2 249.754 2.56266 251.12 3.288C252.528 4.01333 253.744 4.86667 254.768 5.848C255.834 6.82933 256.367 7.68267 256.367 8.408C256.367 8.792 255.962 10.4987 255.151 13.528C253.658 18.904 252.549 23.5973 251.824 27.608C251.397 30.1253 250.949 33.432 250.479 37.528C250.053 41.0267 249.669 43.48 249.327 44.888C249.029 46.296 248.538 47 247.855 47C246.618 47 245.168 46.488 243.504 45.464C241.882 44.3973 240.474 43.096 239.279 41.56C238.639 40.7067 237.744 39.0427 236.592 36.568C235.44 34.0933 234.309 31.32 233.199 28.248C232.133 25.1333 231.322 22.232 230.768 19.544L230.32 27.608C229.893 30.1253 229.445 33.432 228.975 37.528C228.549 41.0267 228.165 43.48 227.824 44.888C227.525 46.296 227.034 47 226.352 47C225.37 47 224.197 46.6587 222.831 45.976C221.509 45.2507 220.335 44.3973 219.311 43.416C218.33 42.4347 217.839 41.624 217.839 40.984C217.797 40.3013 217.989 38.872 218.415 36.696C218.885 34.4773 219.183 33.048 219.311 32.408C219.482 31.5547 219.802 29.9973 220.271 27.736C220.741 25.432 221.125 23.2987 221.423 21.336L221.936 18.328C222.746 13.5493 223.493 9.66667 224.176 6.68C224.901 3.69333 225.626 2.2 226.352 2.2C227.077 2.2 228.058 2.52 229.296 3.16C230.576 3.75733 231.727 4.504 232.751 5.4C233.818 6.296 234.501 7.14933 234.799 7.96C236.805 13.336 239.258 20.5893 242.16 29.72L242.928 21.336L243.439 18.328C244.25 13.5493 244.997 9.66667 245.68 6.68C246.405 3.69333 247.13 2.2 247.855 2.2Z" stroke="white" stroke-width="2" mask="url(#path-1-outside-1)"/>
<path d="M264.569 1.56C269.731 1.98666 274.51 3.26666 278.905 5.4C283.299 7.53333 286.776 10.2213 289.336 13.464C291.896 16.664 293.177 20.0347 293.177 23.576C293.177 26.6907 291.811 30.1253 289.081 33.88C286.35 37.6347 283.022 40.8133 279.096 43.416C275.214 46.0187 271.673 47.32 268.473 47.32C267.406 47.32 266.04 46.7867 264.376 45.72C262.755 44.6533 261.326 43.4373 260.089 42.072C258.851 40.664 258.233 39.5547 258.233 38.744C258.233 38.0187 258.659 35.992 259.513 32.664C260.366 29.208 261.07 26.0933 261.625 23.32C261.838 22.2533 262.307 20.376 263.033 17.688C263.118 17.304 263.331 16.536 263.672 15.384C264.014 14.1893 264.27 13.1013 264.44 12.12L261.816 11.992C261.134 10.6267 260.793 9.26133 260.793 7.896C260.793 6.616 261.113 5.44267 261.753 4.376C262.393 3.26667 263.331 2.328 264.569 1.56ZM268.473 38.936C272.739 36.7173 276.28 34.008 279.096 30.808C281.955 27.608 283.384 24.6 283.384 21.784C283.384 20.12 282.382 18.52 280.376 16.984C278.414 15.448 276.152 14.424 273.592 13.912C273.08 16.5147 272.313 20.248 271.289 25.112C270.009 31.1707 269.07 35.7787 268.473 38.936Z" stroke="white" stroke-width="2" mask="url(#path-1-outside-1)"/>
</svg>
